<svg width="34" height="36" viewBox="0 0 34 36" fill="none" xmlns="http://www.w3.org/2000/svg">
<path d="M0 2.32398e-05V16.5652H2.23141V2.27403L16.1857 2.28193V2.32398e-05H0Z" fill="black"/>
<path d="M34 36V19.4351H31.7686V33.726L17.8143 33.7182V36H34Z" fill="black"/>
<path d="M10.7182 16.5626V12.8739L6.89972 7.03459H9.15608L11.6528 10.8458L14.1494 7.03459H16.4058L12.5873 12.8739V16.5626H10.7182Z" fill="black"/>
<path d="M26.2529 7.03459V12.1525C26.2529 14.7659 24.3971 16.5626 21.9137 16.5626C19.4305 16.5626 17.5613 14.7659 17.5613 12.1525V7.03459H19.4305V12.1525C19.4305 13.7042 20.4985 14.657 21.9137 14.657C23.3289 14.657 24.3838 13.7042 24.3838 12.1525V7.03459H26.2529Z" fill="black"/>
<path d="M16.049 27.1254C15.8398 27.434 15.5973 27.713 15.3213 27.9624C15.0454 28.2121 14.7406 28.4242 14.4067 28.5989C14.073 28.7735 13.7125 28.9074 13.3254 29.0003C12.9382 29.0933 12.531 29.1399 12.1038 29.1399C11.3828 29.1399 10.7219 29.0173 10.1211 28.7724C9.52027 28.5274 9.00286 28.1848 8.56895 27.7447C8.13514 27.3046 7.79792 26.7828 7.55757 26.1794C7.31733 25.5761 7.1972 24.9159 7.1972 24.1989C7.1972 23.4822 7.31733 22.822 7.55757 22.2184C7.79792 21.6151 8.13514 21.0933 8.56895 20.6532C9.00286 20.2131 9.52027 19.8706 10.1211 19.6256C10.7219 19.3806 11.3828 19.2581 12.1038 19.2581C12.5353 19.2581 12.9516 19.3069 13.3521 19.4045C13.7526 19.502 14.1241 19.6425 14.4669 19.8263C14.8096 20.0101 15.1211 20.2346 15.4014 20.5C15.6819 20.7655 15.9177 21.0638 16.1092 21.395L14.5066 22.4286C14.2358 22.0268 13.8925 21.7132 13.4774 21.4881C13.062 21.2628 12.5878 21.1502 12.0552 21.1502C11.6262 21.1502 11.2289 21.2243 10.8633 21.3721C10.4975 21.5202 10.1815 21.7264 9.91524 21.9913C9.64884 22.2563 9.43999 22.5754 9.28878 22.9485C9.13747 23.3217 9.06191 23.7334 9.06191 24.1838C9.06191 24.6475 9.13978 25.067 9.29562 25.4422C9.45135 25.8176 9.66343 26.1367 9.93214 26.3994C10.2007 26.6621 10.5168 26.8642 10.8802 27.0054C11.2436 27.1468 11.6353 27.2173 12.0552 27.2173C12.5878 27.2173 13.062 27.1081 13.4774 26.8895C13.8925 26.6709 14.2425 26.3564 14.5271 25.9457L16.049 27.1254Z" fill="black"/>
<path d="M20.3188 25.5602H23.4963L21.9076 22.0486L20.3188 25.5602ZM24.3642 27.4657H19.4511L18.7701 28.963H16.7139L21.0397 19.4352H22.7754L27.1012 28.963H25.0451L24.3642 27.4657Z" fill="black"/>
</svg>
